<svg width="72" height="96" viewBox="0 0 72 96" fill="none" xmlns="http://www.w3.org/2000/svg">
<path d="M32.3002 94.0631C5.05687 54.5683 0 50.5149 0 36C0 16.1177 16.1177 0 36 0C55.8823 0 72 16.1177 72 36C72 50.5149 66.9431 54.5683 39.6997 94.0631C37.9119 96.6457 34.0879 96.6455 32.3002 94.0631Z" fill="#EFD13B"/>
<path d="M35.9929 19.0688C36.0492 19.3993 37.125 25.7134 37.125 28.1251C37.125 31.8024 35.1703 34.4251 32.2804 35.4797L33.1875 52.2211C33.2367 53.1844 32.4703 54 31.5 54H27C26.0367 54 25.2633 53.1914 25.3125 52.2211L26.2195 35.4797C23.3227 34.4251 21.375 31.7954 21.375 28.1251C21.375 25.7063 22.4508 19.3993 22.507 19.0688C22.732 17.6415 25.6922 17.6204 25.875 19.1462V29.0743C25.9664 29.3134 26.9367 29.2993 27 29.0743C27.0984 27.2954 27.5555 19.2868 27.5625 19.104C27.7945 17.6415 30.7054 17.6415 30.9304 19.104C30.9445 19.2938 31.3945 27.2954 31.4929 29.0743C31.5562 29.2993 32.5336 29.3134 32.6179 29.0743V19.1462C32.8007 17.6274 35.7679 17.6415 35.9929 19.0688ZM44.3742 39.1571L43.3195 52.1719C43.2351 53.1563 44.0156 54 44.9999 54H48.9374C49.8726 54 50.6249 53.2477 50.6249 52.3125V19.6876C50.6249 18.7595 49.8726 18.0001 48.9374 18.0001C43.1367 18.0001 33.3703 30.5508 44.3742 39.1571Z" fill="#F6F8FF"/>
</svg>
