<svg width="72" height="96" viewBox="0 0 72 96" fill="none" xmlns="http://www.w3.org/2000/svg">
<path d="M32.3002 94.0631C5.05687 54.5683 0 50.5149 0 36C0 16.1177 16.1177 0 36 0C55.8823 0 72 16.1177 72 36C72 50.5149 66.9431 54.5683 39.6997 94.0631C37.9119 96.6457 34.0879 96.6455 32.3002 94.0631Z" fill="#29335C"/>
<path d="M56.7625 26.3391L52.1789 19.0547C51.7692 18.4008 51.0418 18 50.2649 18H21.7323C20.9554 18 20.228 18.4008 19.8184 19.0547L15.2348 26.3391C12.8688 30.1008 14.9664 35.332 19.3875 35.9297C19.7054 35.9719 20.0302 35.993 20.3551 35.993C22.4456 35.993 24.296 35.0789 25.5673 33.6656C26.8385 35.0789 28.696 35.993 30.7794 35.993C32.8699 35.993 34.7203 35.0789 35.9916 33.6656C37.2628 35.0789 39.1203 35.993 41.2037 35.993C43.2942 35.993 45.1446 35.0789 46.4159 33.6656C47.6942 35.0789 49.5446 35.993 51.628 35.993C51.9599 35.993 52.2778 35.9719 52.5956 35.9297C57.0308 35.3391 59.1355 30.1078 56.7625 26.3391ZM51.6421 38.25C50.9359 38.25 50.2367 38.1445 49.5587 37.9828V45H22.4386V37.9828C21.7606 38.1375 21.0614 38.25 20.3551 38.25C19.9314 38.25 19.5005 38.2219 19.0839 38.1656C18.6884 38.1094 18.2999 38.018 17.9256 37.9125V51.75C17.9256 52.9945 18.9355 54 20.1856 54H51.8257C53.0758 54 54.0858 52.9945 54.0858 51.75V37.9125C53.7044 38.025 53.323 38.1164 52.9275 38.1656C52.4967 38.2219 52.0729 38.25 51.6421 38.25Z" fill="#F6F8FF"/>
</svg>
