<svg width="72" height="96" viewBox="0 0 72 96" fill="none" xmlns="http://www.w3.org/2000/svg">
<path d="M32.3002 94.0631C5.05687 54.5683 0 50.5149 0 36C0 16.1177 16.1177 0 36 0C55.8823 0 72 16.1177 72 36C72 50.5149 66.9431 54.5683 39.6997 94.0631C37.9119 96.6457 34.0879 96.6455 32.3002 94.0631Z" fill="#FFCF87"/>
<path d="M38.7188 23.7183V22.125H40.0781C40.8292 22.125 41.4375 21.5097 41.4375 20.75V19.375C41.4375 18.6153 40.8292 18 40.0781 18H31.9219C31.1708 18 30.5625 18.6153 30.5625 19.375V20.75C30.5625 21.5097 31.1708 22.125 31.9219 22.125H33.2812V23.7183C24.0621 25.0563 16.9688 33.0545 16.9688 42.75H55.0312C55.0312 33.0545 47.9379 25.0563 38.7188 23.7183ZM56.3906 45.5H15.6094C14.8583 45.5 14.25 46.1153 14.25 46.875V49.625C14.25 50.3847 14.8583 51 15.6094 51H56.3906C57.1417 51 57.75 50.3847 57.75 49.625V46.875C57.75 46.1153 57.1417 45.5 56.3906 45.5Z" fill="#F6F8FF"/>
</svg>
