<?xml version="1.0" encoding="UTF-8" standalone="no"?>
<svg xmlns:dc="http://purl.org/dc/elements/1.1/" xmlns:cc="http://creativecommons.org/ns#" xmlns:rdf="http://www.w3.org/1999/02/22-rdf-syntax-ns#" xmlns:svg="http://www.w3.org/2000/svg" xmlns="http://www.w3.org/2000/svg" xmlns:sodipodi="http://sodipodi.sourceforge.net/DTD/sodipodi-0.dtd" xmlns:inkscape="http://www.inkscape.org/namespaces/inkscape" inkscape:version="1.0 (4035a4fb49, 2020-05-01)" height="355.875" width="283.16119" sodipodi:docname="img.svg" id="svg6" viewbox="0 0 283 355">
  <g id="g4" fill="#000000" transform="matrix(0.1,0,0,-0.1,-65.6,442.875)">
    <path id="path2" d="m 1755,4416 c -92,-14 -164,-37 -243,-78 -31,-15 -59,-28 -63,-28 -9,0 -161,-88 -211,-122 -118,-81 -218,-175 -302,-283 -101,-130 -125,-170 -197,-330 -13,-30 -37,-106 -61,-193 -19,-67 -22,-104 -22,-282 0,-177 3,-215 21,-280 32,-116 55,-183 70,-205 7,-11 13,-25 13,-31 0,-27 149,-267 279,-449 27,-38 67,-95 89,-125 81,-116 112,-159 213,-300 58,-80 135,-185 172,-235 284,-376 379,-497 429,-547 50,-52 61,-58 98,-58 92,0 205,92 357,292 87,114 249,336 328,447 40,56 112,157 212,294 53,74 89,124 218,307 103,146 255,404 255,432 0,6 7,24 15,41 47,101 69,270 61,480 -7,200 -42,336 -133,515 -71,141 -123,211 -243,332 -126,126 -247,211 -420,295 -170,83 -199,93 -320,111 -118,17 -503,17 -615,0 z m 947,-638 c 18,-15 109,-171 157,-270 84,-173 78,-292 -21,-369 -83,-66 -158,-85 -216,-55 -77,39 -166,39 -305,-1 l -58,-17 -99,33 -98,34 -92,-33 c -86,-30 -96,-32 -139,-21 -166,43 -234,44 -327,5 -66,-28 -129,-11 -212,54 -102,81 -108,192 -21,367 11,22 28,52 37,67 9,14 38,62 64,106 26,44 55,87 63,96 15,14 80,16 634,16 479,0 621,-3 633,-12 z M 1520,2980 c 25,-27 29,-41 36,-121 4,-60 12,-96 23,-109 15,-18 42,-20 516,-28 275,-5 505,-7 511,-5 6,2 15,37 18,76 13,135 49,207 106,207 58,0 61,-14 58,-336 l -3,-289 -590,4 c -324,2 -633,6 -685,10 -89,6 -96,8 -107,32 -8,16 -15,113 -19,280 -6,252 -6,254 15,282 32,39 83,38 121,-3 z"></path>
  </g>
</svg>
