<svg width="35" height="24" viewBox="0 0 35 24" fill="none" xmlns="http://www.w3.org/2000/svg">
<path d="M31.4231 0H2.86314C1.27978 0 0 1.15179 0 2.57143V21.4286C0 22.8482 1.27978 24 2.86314 24H31.4231C33.0065 24 34.2863 22.8482 34.2863 21.4286V2.57143C34.2863 1.15179 33.0065 0 31.4231 0ZM3.22029 2.57143H31.066C31.2624 2.57143 31.4231 2.71607 31.4231 2.89286V5.14286H2.86314V2.89286C2.86314 2.71607 3.02386 2.57143 3.22029 2.57143ZM31.066 21.4286H3.22029C3.02386 21.4286 2.86314 21.2839 2.86314 21.1071V12H31.4231V21.1071C31.4231 21.2839 31.2624 21.4286 31.066 21.4286ZM11.4288 16.0714V18.2143C11.4288 18.5679 11.1073 18.8571 10.7145 18.8571H6.42867C6.03581 18.8571 5.71438 18.5679 5.71438 18.2143V16.0714C5.71438 15.7179 6.03581 15.4286 6.42867 15.4286H10.7145C11.1073 15.4286 11.4288 15.7179 11.4288 16.0714ZM22.8575 16.0714V18.2143C22.8575 18.5679 22.5361 18.8571 22.1432 18.8571H14.0478C13.655 18.8571 13.3335 18.5679 13.3335 18.2143V16.0714C13.3335 15.7179 13.655 15.4286 14.0478 15.4286H22.1432C22.5361 15.4286 22.8575 15.7179 22.8575 16.0714Z" fill="#EFD13B"/>
</svg>
