<svg width="35" height="24" viewBox="0 0 35 24" fill="none" xmlns="http://www.w3.org/2000/svg">
<path d="M6.85773 4.5C8.27733 4.5 9.42908 3.49219 9.42908 2.25C9.42908 1.00781 8.27733 0 6.85773 0C5.43813 0 4.28638 1.00781 4.28638 2.25C4.28638 3.49219 5.43813 4.5 6.85773 4.5ZM27.4285 4.5C28.8481 4.5 29.9999 3.49219 29.9999 2.25C29.9999 1.00781 28.8481 0 27.4285 0C26.0089 0 24.8572 1.00781 24.8572 2.25C24.8572 3.49219 26.0089 4.5 27.4285 4.5ZM34.1622 21.9422L31.8052 16.7859L29.6034 18.9609L29.4963 19.8141L30.9802 23.0578C31.248 23.6437 31.8909 24 32.5712 24C32.7855 24 32.9998 23.9672 33.2087 23.8922C34.0872 23.5828 34.5158 22.7109 34.1622 21.9422ZM32.3302 12.1078L31.3391 8.34844C31.0927 7.41094 30.3427 6.62344 29.3302 6.24375C28.3392 5.86875 27.241 5.92969 26.325 6.39844C25.1089 7.02656 24.1983 8.01562 23.7483 9.18281L23.1429 10.7719L22.2858 11.25V6.75C22.2858 6.3375 21.9001 6 21.4287 6H12.8575C12.3861 6 12.0004 6.3375 12.0004 6.75V11.25L11.138 10.7719L10.5326 9.18281C10.088 8.01094 9.17195 7.02656 7.95591 6.39844C7.03451 5.92969 5.94169 5.86875 4.95065 6.24375C3.93818 6.62344 3.1882 7.41094 2.94178 8.34844L1.9561 12.1078C1.70968 13.0453 1.9936 14.0391 2.7275 14.7656L6.32739 18.3234L6.86845 22.6641C6.96487 23.4281 7.70413 24 8.57196 24C8.63625 24 8.69518 23.9953 8.75946 23.9906C9.70229 23.9016 10.3773 23.1609 10.2755 22.3359L9.73443 17.9859C9.65407 17.3766 9.3648 16.8094 8.89874 16.3453L6.57917 14.0484L7.522 10.7531L7.88627 11.7094C8.10591 12.2953 8.52375 12.8062 9.19873 13.2375L11.9361 14.7609C12.1826 14.8969 12.5843 14.9766 12.8575 14.9953H21.4287C21.7019 14.9766 22.1037 14.8969 22.3501 14.7609L25.0875 13.2375C25.7625 12.8062 26.1803 12.3 26.4 11.7094L26.7643 10.7531L27.7071 14.0484L25.3875 16.3453C24.9215 16.8094 24.6322 17.3766 24.5518 17.9859L24.0108 22.3359C23.909 23.1609 24.5893 23.9016 25.5268 23.9906C25.5911 23.9953 25.65 24 25.7143 24C26.5768 24 27.3214 23.4328 27.4178 22.6641L27.9589 18.3234L31.5587 14.7656C32.2873 14.0391 32.5766 13.0453 32.3302 12.1078ZM2.48108 16.7859L0.124013 21.9422C-0.229548 22.7109 0.19901 23.5828 1.07755 23.8922C1.97753 24.2016 2.95785 23.8125 3.30606 23.0578L4.78994 19.8141L4.6828 18.9609L2.48108 16.7859Z" fill="#EFD13B"/>
</svg>
