<svg width="48" height="64" viewBox="0 0 48 64" fill="none" xmlns="http://www.w3.org/2000/svg">
<path d="M21.5335 62.7087C3.37125 36.3789 0 33.6766 0 24C0 10.7451 10.7451 0 24 0C37.2549 0 48 10.7451 48 24C48 33.6766 44.6287 36.3789 26.4665 62.7087C25.2746 64.4305 22.7252 64.4304 21.5335 62.7087Z" fill="#FFCF87"/>
<path d="M25.8125 15.8122V14.75H26.7188C27.2195 14.75 27.625 14.3398 27.625 13.8333V12.9167C27.625 12.4102 27.2195 12 26.7188 12H21.2812C20.7805 12 20.375 12.4102 20.375 12.9167V13.8333C20.375 14.3398 20.7805 14.75 21.2812 14.75H22.1875V15.8122C16.0414 16.7042 11.3125 22.0364 11.3125 28.5H36.6875C36.6875 22.0364 31.9586 16.7042 25.8125 15.8122ZM37.5938 30.3333H10.4062C9.90555 30.3333 9.5 30.7435 9.5 31.25V33.0833C9.5 33.5898 9.90555 34 10.4062 34H37.5938C38.0945 34 38.5 33.5898 38.5 33.0833V31.25C38.5 30.7435 38.0945 30.3333 37.5938 30.3333Z" fill="#F6F8FF"/>
</svg>
