<svg width="48" height="64" viewBox="0 0 48 64" fill="none" xmlns="http://www.w3.org/2000/svg">
<path d="M21.5335 62.7087C3.37125 36.3789 0 33.6766 0 24C0 10.7451 10.7451 0 24 0C37.2549 0 48 10.7451 48 24C48 33.6766 44.6287 36.3789 26.4665 62.7087C25.2746 64.4305 22.7252 64.4304 21.5335 62.7087Z" fill="#29335C"/>
<path d="M37.8416 17.5594L34.7859 12.7031C34.5128 12.2672 34.0279 12 33.51 12H14.4882C13.9703 12 13.4853 12.2672 13.2122 12.7031L10.1565 17.5594C8.57922 20.0672 9.9776 23.5547 12.925 23.9531C13.1369 23.9813 13.3535 23.9953 13.5701 23.9953C14.9637 23.9953 16.1973 23.3859 17.0448 22.4438C17.8923 23.3859 19.1306 23.9953 20.5196 23.9953C21.9133 23.9953 23.1469 23.3859 23.9944 22.4438C24.8419 23.3859 26.0802 23.9953 27.4691 23.9953C28.8628 23.9953 30.0964 23.3859 30.9439 22.4438C31.7961 23.3859 33.0297 23.9953 34.4187 23.9953C34.64 23.9953 34.8518 23.9813 35.0637 23.9531C38.0206 23.5594 39.4236 20.0719 37.8416 17.5594V17.5594ZM34.4281 25.5C33.9572 25.5 33.4911 25.4297 33.0391 25.3219V30H14.959V25.3219C14.507 25.425 14.0409 25.5 13.5701 25.5C13.2876 25.5 13.0004 25.4812 12.7226 25.4437C12.4589 25.4062 12.1999 25.3453 11.9504 25.275V34.5C11.9504 35.3297 12.6237 36 13.4571 36H34.5505C35.3839 36 36.0572 35.3297 36.0572 34.5V25.275C35.8029 25.35 35.5487 25.4109 35.285 25.4437C34.9978 25.4812 34.7153 25.5 34.4281 25.5Z" fill="#F6F8FF"/>
</svg>
