<svg width="35" height="24" viewBox="0 0 35 24" fill="none" xmlns="http://www.w3.org/2000/svg">
<path d="M33.4291 16.5H32.5719V11.4328C32.5719 10.8375 32.2987 10.2656 31.8166 9.84375L26.4647 5.16094C25.9825 4.73906 25.329 4.5 24.6486 4.5H22.2861V2.25C22.2861 1.00781 21.1343 0 19.7146 0H6.00009C4.58043 0 3.42863 1.00781 3.42863 2.25V4.5H0.428578C0.19286 4.5 0 4.66875 0 4.875V5.625C0 5.83125 0.19286 6 0.428578 6H15.0002C15.236 6 15.4288 6.16875 15.4288 6.375V7.125C15.4288 7.33125 15.236 7.5 15.0002 7.5H2.14289C1.90717 7.5 1.71431 7.66875 1.71431 7.875V8.625C1.71431 8.83125 1.90717 9 2.14289 9H13.2859C13.5216 9 13.7145 9.16875 13.7145 9.375V10.125C13.7145 10.3313 13.5216 10.5 13.2859 10.5H0.428578C0.19286 10.5 0 10.6687 0 10.875V11.625C0 11.8313 0.19286 12 0.428578 12H11.5716C11.8073 12 12.0002 12.1687 12.0002 12.375V13.125C12.0002 13.3313 11.8073 13.5 11.5716 13.5H3.42863V19.5C3.42863 21.9844 5.73223 24 8.57156 24C11.4109 24 13.7145 21.9844 13.7145 19.5H20.5718C20.5718 21.9844 22.8754 24 25.7147 24C28.554 24 30.8576 21.9844 30.8576 19.5H33.4291C33.9005 19.5 34.2863 19.1625 34.2863 18.75V17.25C34.2863 16.8375 33.9005 16.5 33.4291 16.5ZM8.57156 21.75C7.1519 21.75 6.00009 20.7422 6.00009 19.5C6.00009 18.2578 7.1519 17.25 8.57156 17.25C9.99123 17.25 11.143 18.2578 11.143 19.5C11.143 20.7422 9.99123 21.75 8.57156 21.75ZM25.7147 21.75C24.295 21.75 23.1432 20.7422 23.1432 19.5C23.1432 18.2578 24.295 17.25 25.7147 17.25C27.1344 17.25 28.2862 18.2578 28.2862 19.5C28.2862 20.7422 27.1344 21.75 25.7147 21.75ZM30.0005 12H22.2861V6.75H24.6486L30.0005 11.4328V12Z" fill="#EFD13B"/>
</svg>
