<svg width="23" height="24" viewBox="0 0 23 24" fill="none" xmlns="http://www.w3.org/2000/svg">
<path d="M12.1115 0C15.6643 0.172807 19.1908 2.23331 21.0711 6.47588C22.972 10.7653 22.2647 14.8277 19.1761 18.4391C17.5008 20.3986 15.5237 21.9743 13.3475 23.329C11.9929 24.1725 10.6822 24.2267 9.24556 23.4578C6.09109 21.7693 3.34522 19.64 1.54685 16.4928C-0.529765 12.861 -0.49462 9.15146 1.52635 5.51665C3.45505 2.05172 7.09426 0.00146447 12.1115 0ZM16.4815 11.5283C16.483 8.70919 14.4327 6.40705 11.6268 6.07608C9.00832 5.76707 6.48211 7.5464 5.80846 10.1751C5.02936 13.2154 7.86749 17.5194 10.9531 17.969C11.1098 17.9925 11.2797 17.9705 11.4364 17.9353C13.7854 17.3935 16.48 13.9696 16.4815 11.5283Z" fill="#037D94"/>
</svg>
