<svg width="512" height="174" viewBox="0 0 512 174" fill="none" xmlns="http://www.w3.org/2000/svg">
<path d="M310.205 51.5326C321.015 47.9986 331.386 46.4895 342.304 48.6222C362.392 52.5489 375.311 64.4291 381.263 83.5237C386.337 99.7849 385.944 116.408 380.816 132.7C373.579 155.713 354.269 169.403 328.622 170.096C313.215 170.512 298.086 168.541 283.149 164.876C277.267 163.436 274.51 160.141 274.534 153.688C274.711 105.991 274.618 58.285 274.641 10.5871C274.649 3.75003 276.851 1.4633 283.588 1.30931C289.301 1.17842 295.022 1.20152 300.742 1.30162C307.633 1.41711 310.136 3.92712 310.182 10.9875C310.267 24.3537 310.205 37.7199 310.205 51.5326ZM310.197 109.17C310.197 115.769 310.713 122.413 310.051 128.95C309.412 135.279 312.222 137.72 317.812 138.182C331.355 139.314 343.351 139.098 346.577 118.787C347.416 113.505 347.247 108.262 347.147 103.011C346.77 84.2705 332.041 74.5693 314.494 81.2293C311.437 82.3842 309.974 83.8779 310.12 87.4042C310.405 94.6494 310.205 101.918 310.197 109.17Z" fill="#037D94"/>
<path d="M56.5783 27.8335C56.5783 33.1076 56.9787 38.4279 56.4628 43.6558C55.947 48.9145 58.0643 49.9385 62.7687 49.669C69.344 49.2841 75.9655 49.6844 82.5639 49.5459C88.6618 49.415 91.4952 52.1791 91.3104 58.3001C91.1641 63.1353 91.2565 67.9782 91.2796 72.8135C91.3104 78.2647 88.5232 80.9364 83.1798 80.9826C75.9193 81.0442 68.6587 81.1904 61.4059 80.9441C57.7948 80.8209 56.3858 81.7063 56.4936 85.6099C56.8016 96.3737 56.4474 107.168 56.8478 117.924C57.3868 132.599 65.502 138.859 79.8152 136.164C89.6704 134.309 91.5414 135.487 94.3055 145.242C94.8444 147.136 95.445 149.015 95.9608 150.916C99.3332 163.389 98.3939 165.391 85.9208 168.309C73.7865 171.15 61.5521 171.027 49.6104 167.07C33.9651 161.896 24.1792 146.736 22.3236 127.333C21.0147 113.713 21.2534 100.131 21.2457 86.5261C21.2457 82.6225 20.7529 80.844 16.0486 80.8748C0.0184244 80.9672 0.0184303 80.7362 0.0184303 64.7137C0.0184303 62.735 -0.0277704 60.7562 0.0261255 58.7775C0.210911 51.8095 2.25126 49.746 9.04984 49.569C21.161 49.261 21.1533 49.261 21.161 37.0805C21.1687 28.9422 21.1302 20.8039 21.2149 12.6734C21.315 3.52644 23.5632 1.30131 32.4407 1.27052C37.2836 1.25512 42.1188 1.20891 46.9618 1.28591C54.2762 1.4014 56.4474 3.51875 56.5398 10.6792C56.6399 16.3999 56.5783 22.1128 56.5783 27.8335Z" fill="#037D94"/>
<path d="M459.373 47.4675C478.052 48.3761 496.592 59.2091 506.478 81.5144C516.472 104.066 512.753 125.424 496.515 144.411C487.707 154.713 477.313 162.997 465.871 170.119C458.749 174.554 451.859 174.839 444.305 170.797C427.721 161.919 413.284 150.724 403.83 134.178C392.912 115.084 393.097 95.5812 403.722 76.4712C413.862 58.2544 432.995 47.4752 459.373 47.4675ZM482.348 108.077C482.356 93.256 471.577 81.1525 456.825 79.4124C443.058 77.7878 429.777 87.1426 426.235 100.963C422.139 116.947 437.06 139.576 453.283 141.939C454.107 142.063 455 141.947 455.824 141.762C468.174 138.914 482.34 120.912 482.348 108.077Z" fill="#037D94"/>
<path d="M113.808 113.944C113.808 99.4462 113.992 84.9482 113.715 70.4579C113.607 64.9836 115.771 61.3033 120.013 58.2851C129.268 51.6867 139.932 49.323 150.888 48.1758C163.846 46.8207 176.904 46.5666 188.931 52.603C198.601 57.4536 202.32 60.9645 196.753 72.0825C195.976 73.6378 195.391 75.2854 194.713 76.8869C190.833 86.0415 189.162 86.7114 179.884 82.8694C172.423 79.7819 164.809 78.1573 156.832 80.7597C151.75 82.4151 149.017 85.3409 149.086 91.3156C149.379 113.937 149.217 136.557 149.194 159.186C149.186 166.393 147.008 168.618 139.939 168.702C134.45 168.764 128.952 168.756 123.463 168.702C116.017 168.633 113.854 166.447 113.831 158.763C113.769 143.818 113.808 128.881 113.808 113.944Z" fill="#037D94"/>
<path d="M212.714 108.87C212.714 92.1621 212.684 75.4543 212.73 58.7466C212.745 51.9403 214.978 49.3918 221.507 49.13C227.436 48.8913 233.387 48.9606 239.316 49.1146C245.445 49.2686 248.355 52.4484 248.34 58.7312C248.255 92.1467 248.332 125.562 248.27 158.978C248.255 166.4 245.745 168.779 238.353 168.848C232.856 168.902 227.359 168.933 221.861 168.841C215.309 168.733 212.753 166.184 212.73 159.663C212.684 142.724 212.714 125.793 212.714 108.87Z" fill="#037D94"/>
<path d="M211.021 19.3797C211.144 8.85465 219.976 -0.0612781 230.224 0.000317255C240.548 0.0619126 249.811 9.72468 249.549 20.1651C249.295 30.5824 240.14 39.2828 229.762 38.9748C218.928 38.6591 210.898 30.2667 211.021 19.3797Z" fill="#037D94"/>
</svg>
