<svg width="48" height="64" viewBox="0 0 48 64" fill="none" xmlns="http://www.w3.org/2000/svg">
<path d="M21.5335 62.7087C3.37125 36.3789 0 33.6766 0 24C0 10.7451 10.7451 0 24 0C37.2549 0 48 10.7451 48 24C48 33.6766 44.6287 36.3789 26.4665 62.7087C25.2746 64.4305 22.7252 64.4304 21.5335 62.7087Z" fill="#EFD13B"/>
<path d="M23.9953 12.7126C24.0328 12.9329 24.75 17.1422 24.75 18.75C24.75 21.2016 23.4469 22.95 21.5203 23.6532L22.125 34.8141C22.1578 35.4563 21.6469 36 21 36H18C17.3578 36 16.8422 35.4609 16.875 34.8141L17.4797 23.6532C15.5484 22.95 14.25 21.1969 14.25 18.75C14.25 17.1376 14.9672 12.9329 15.0047 12.7126C15.1547 11.761 17.1281 11.7469 17.25 12.7641V19.3829C17.3109 19.5422 17.9578 19.5329 18 19.3829C18.0656 18.1969 18.3703 12.8579 18.375 12.736C18.5297 11.761 20.4703 11.761 20.6203 12.736C20.6297 12.8626 20.9297 18.1969 20.9953 19.3829C21.0375 19.5329 21.689 19.5422 21.7453 19.3829V12.7641C21.8672 11.7516 23.8453 11.761 23.9953 12.7126ZM29.5828 26.1047L28.8796 34.7813C28.8234 35.4375 29.3437 36 30 36H32.625C33.2484 36 33.7499 35.4984 33.7499 34.875V13.1251C33.7499 12.5063 33.2484 12.0001 32.625 12.0001C28.7578 12.0001 22.2469 20.3672 29.5828 26.1047Z" fill="#F6F8FF"/>
</svg>
