<svg height="128" viewbox="0 0 96 128" width="96" xmlns="http://www.w3.org/2000/svg">
<path d="M43.067 125.417C6.7425 72.7577 0 67.3532 0 48C0 21.4902 21.4902 0 48 0C74.5097 0 96 21.4902 96 48C96 67.3532 89.2575 72.7577 52.933 125.417C50.5492 128.861 45.4505 128.861 43.067 125.417Z" fill="#EFD13B"></path>
<path d="M47.9906 25.4251C48.0656 25.8658 49.4999 34.2845 49.4999 37.5001C49.4999 42.4032 46.8937 45.9001 43.0406 47.3063L44.25 69.6281C44.3156 70.9125 43.2937 72 42 72H36C34.7156 72 33.6844 70.9219 33.75 69.6281L34.9594 47.3063C31.0969 45.9001 28.5 42.3938 28.5 37.5001C28.5 34.2751 29.9344 25.8658 30.0094 25.4251C30.3094 23.522 34.2562 23.4939 34.5 25.5283V38.7657C34.6219 39.0845 35.9156 39.0657 36 38.7657C36.1312 36.3939 36.7406 25.7158 36.75 25.472C37.0594 23.522 40.9406 23.522 41.2406 25.472C41.2593 25.7251 41.8593 36.3939 41.9906 38.7657C42.075 39.0657 43.3781 39.0845 43.4906 38.7657V25.5283C43.7343 23.5033 47.6906 23.522 47.9906 25.4251ZM59.1655 52.2094L57.7593 69.5625C57.6468 70.875 58.6874 72 59.9999 72H65.2499C66.4968 72 67.4999 70.9969 67.4999 69.75V26.2501C67.4999 25.0126 66.4968 24.0001 65.2499 24.0001C57.5155 24.0001 44.4937 40.7345 59.1655 52.2094Z" fill="#F6F8FF"></path></svg>
