<svg height="128" viewbox="0 0 96 128" width="96" xmlns="http://www.w3.org/2000/svg">
<path d="M43.067 125.417C6.7425 72.7577 0 67.3532 0 48C0 21.4902 21.4902 0 48 0C74.5097 0 96 21.4902 96 48C96 67.3532 89.2575 72.7577 52.933 125.417C50.5492 128.861 45.4505 128.861 43.067 125.417Z" fill="#29335C"></path>
<path d="M75.6833 35.1187L69.5718 25.4062C69.0257 24.5344 68.0557 24 67.0199 24H28.9764C27.9406 24 26.9707 24.5344 26.4245 25.4062L20.313 35.1187C17.1584 40.1344 19.9552 47.1094 25.8501 47.9062C26.2738 47.9625 26.707 47.9906 27.1402 47.9906C29.9275 47.9906 32.3947 46.7719 34.0897 44.8875C35.7847 46.7719 38.2613 47.9906 41.0392 47.9906C43.8266 47.9906 46.2937 46.7719 47.9887 44.8875C49.6838 46.7719 52.1603 47.9906 54.9383 47.9906C57.7256 47.9906 60.1928 46.7719 61.8878 44.8875C63.5922 46.7719 66.0594 47.9906 68.8373 47.9906C69.2799 47.9906 69.7037 47.9625 70.1274 47.9062C76.0411 47.1187 78.8473 40.1437 75.6833 35.1187ZM68.8562 51C67.9145 51 66.9822 50.8594 66.0782 50.6438V60H29.9181V50.6438C29.0141 50.85 28.0818 51 27.1402 51C26.5751 51 26.0007 50.9625 25.4451 50.8875C24.9178 50.8125 24.3999 50.6906 23.9008 50.55V69C23.9008 70.6594 25.2474 72 26.9142 72H69.101C70.7678 72 72.1143 70.6594 72.1143 69V50.55C71.6058 50.7 71.0973 50.8219 70.57 50.8875C69.9956 50.9625 69.4306 51 68.8562 51Z" fill="#F6F8FF"></path></svg>
