<svg height="128" viewbox="0 0 96 128" width="96" xmlns="http://www.w3.org/2000/svg">
<path d="M43.067 125.417C6.7425 72.7577 0 67.3532 0 48C0 21.4902 21.4902 0 48 0C74.5097 0 96 21.4902 96 48C96 67.3532 89.2575 72.7577 52.933 125.417C50.5492 128.861 45.4505 128.861 43.067 125.417Z" fill="#FFCF87"></path>
<path d="M51.625 31.6244V29.5H53.4375C54.4389 29.5 55.25 28.6796 55.25 27.6667V25.8333C55.25 24.8204 54.4389 24 53.4375 24H42.5625C41.5611 24 40.75 24.8204 40.75 25.8333V27.6667C40.75 28.6796 41.5611 29.5 42.5625 29.5H44.375V31.6244C32.0829 33.4084 22.625 44.0727 22.625 57H73.375C73.375 44.0727 63.9171 33.4084 51.625 31.6244ZM75.1875 60.6667H20.8125C19.8111 60.6667 19 61.4871 19 62.5V66.1667C19 67.1796 19.8111 68 20.8125 68H75.1875C76.1889 68 77 67.1796 77 66.1667V62.5C77 61.4871 76.1889 60.6667 75.1875 60.6667Z" fill="#F6F8FF"></path></svg>
